<svg xmlns="http://www.w3.org/2000/svg" xmlns:xlink="http://www.w3.org/1999/xlink" xmlns:s="https://github.com/nturley/netlistsvg" width="279" height="226.5">
  <style>svg {
    stroke:#000;
    fill:none;
  }
  text {
    fill:#000;
    stroke:none;
    font-size:10px;
    font-weight: bold;
    font-family: "Courier New", monospace;
  }
  .nodelabel {
    text-anchor: middle;
  }
  .inputPortLabel {
    text-anchor: end;
  }
  .splitjoinBody {
    fill:#000;
  }</style>
  <g s:type="not" transform="translate(32,24.5)" s:width="30" s:height="20" id="cell_$logic_not$imp_reduce.sv:11$2">
    <s:alias val="$_NOT_"/>
    <s:alias val="$not"/>
    <s:alias val="$logic_not"/>
    <path d="M0,0 L0,20 L20,10 Z" class="cell_$logic_not$imp_reduce.sv:11$2"/>
    <circle cx="23" cy="10" r="3" class="cell_$logic_not$imp_reduce.sv:11$2"/>
    <g s:x="0" s:y="10" s:pid="A"/>
    <g s:x="25" s:y="10" s:pid="Y"/>
  </g>
  <g s:type="or" transform="translate(97,29.5)" s:width="30" s:height="25" id="cell_$or$imp_reduce.sv:11$3">
    <s:alias val="$or"/>
    <s:alias val="$logic_or"/>
    <s:alias val="$_OR_"/>
    <path d="M0,25 L0,25 L15,25 A15 12.5 0 0 0 15,0 L0,0" class="cell_$or$imp_reduce.sv:11$3"/>
    <path d="M0,0 A30 25 0 0 1 0,25" class="cell_$or$imp_reduce.sv:11$3"/>
    <g s:x="3" s:y="5" s:pid="A"/>
    <g s:x="3" s:y="20" s:pid="B"/>
    <g s:x="30" s:y="12.5" s:pid="Y"/>
  </g>
  <g s:type="dff" transform="translate(227,89.5)" s:width="30" s:height="40" id="cell_$procdff$8">
    <s:alias val="$dff"/>
    <s:alias val="$_DFF_"/>
    <s:alias val="$_DFF_P_"/>
    <rect width="30" height="40" x="0" y="0" class="cell_$procdff$8"/>
    <path d="M0,35 L5,30 L0,25" class="cell_$procdff$8"/>
    <g s:x="30" s:y="10" s:pid="Q"/>
    <g s:x="0" s:y="30" s:pid="CLK"/>
    <g s:x="0" s:y="30" s:pid="C"/>
    <g s:x="0" s:y="10" s:pid="D"/>
  </g>
  <g s:type="mux" transform="translate(165.33333333333334,79.5)" s:width="20" s:height="40" id="cell_$procmux$6">
    <s:alias val="$pmux"/>
    <s:alias val="$mux"/>
    <s:alias val="$_MUX_"/>
    <path d="M0,0 L20,10 L20,30 L0,40 Z" class="cell_$procmux$6"/>
    <g s:x="0" s:y="10" s:pid="A"/>
    <g s:x="0" s:y="30" s:pid="B"/>
    <g s:x="10" s:y="35" s:pid="S"/>
    <g s:x="20" s:y="20" s:pid="Y"/>
  </g>
  <g s:type="inputExt" transform="translate(162,194.5)" s:width="30" s:height="20" id="cell_clk">
    <text x="15" y="-4" class="nodelabel cell_clk" s:attribute="ref">clk</text>
    <s:alias val="$_inputExt_"/>
    <path d="M0,0 L0,20 L15,20 L30,10 L15,0 Z" class="cell_clk"/>
    <g s:x="28" s:y="10" s:pid="Y"/>
  </g>
  <g s:type="inputExt" transform="translate(97,164.5)" s:width="30" s:height="20" id="cell_rst">
    <text x="15" y="-4" class="nodelabel cell_rst" s:attribute="ref">rst</text>
    <s:alias val="$_inputExt_"/>
    <path d="M0,0 L0,20 L15,20 L30,10 L15,0 Z" class="cell_rst"/>
    <g s:x="28" s:y="10" s:pid="Y"/>
  </g>
  <g s:type="inputExt" transform="translate(32,89.5)" s:width="30" s:height="20" id="cell_a">
    <text x="15" y="-4" class="nodelabel cell_a" s:attribute="ref">a</text>
    <s:alias val="$_inputExt_"/>
    <path d="M0,0 L0,20 L15,20 L30,10 L15,0 Z" class="cell_a"/>
    <g s:x="28" s:y="10" s:pid="Y"/>
  </g>
  <g s:type="outputExt" transform="translate(227,32)" s:width="30" s:height="20" id="cell_imp">
    <text x="15" y="-4" class="nodelabel cell_imp" s:attribute="ref">imp</text>
    <s:alias val="$_outputExt_"/>
    <path d="M30,0 L30,20 L15,20 L0,10 L15,0 Z" class="cell_imp"/>
    <g s:x="0" s:y="10" s:pid="A"/>
  </g>
  <g s:type="constant" transform="translate(97,99.5)" s:width="30" s:height="20" id="cell_0">
    <text x="15" y="-4" class="nodelabel cell_0" s:attribute="ref">0</text>
    <s:alias val="$_constant_"/>
    <rect width="30" height="20" class="cell_0"/>
    <g s:x="30" s:y="10" s:pid="Y"/>
  </g>
  <line x1="257" x2="267" y1="99.5" y2="99.5" class="net_6"/>
  <line x1="267" x2="267" y1="99.5" y2="12" class="net_6"/>
  <line x1="267" x2="12" y1="12" y2="12" class="net_6"/>
  <line x1="12" x2="12" y1="12" y2="34.5" class="net_6"/>
  <line x1="12" x2="32" y1="34.5" y2="34.5" class="net_6"/>
  <line x1="57" x2="100" y1="34.5" y2="34.5" class="net_7"/>
  <line x1="60" x2="72" y1="99.5" y2="99.5" class="net_4"/>
  <line x1="72" x2="72" y1="99.5" y2="49.5" class="net_4"/>
  <line x1="72" x2="100" y1="49.5" y2="49.5" class="net_4"/>
  <line x1="190" x2="202" y1="204.5" y2="204.5" class="net_2"/>
  <line x1="202" x2="202" y1="204.5" y2="119.5" class="net_2"/>
  <line x1="202" x2="227" y1="119.5" y2="119.5" class="net_2"/>
  <line x1="185.33333333333334" x2="227" y1="99.5" y2="99.5" class="net_8"/>
  <line x1="127" x2="137" y1="42" y2="42" class="net_5"/>
  <line x1="137" x2="137" y1="42" y2="89.5" class="net_5"/>
  <circle cx="137" cy="42" r="2" style="fill:#000" class="net_5"/>
  <line x1="137" x2="165.33333333333334" y1="89.5" y2="89.5" class="net_5"/>
  <line x1="127" x2="227" y1="42" y2="42" class="net_5"/>
  <line x1="127" x2="165.33333333333334" y1="109.5" y2="109.5" class="net_9"/>
  <line x1="125" x2="175.33333333333334" y1="174.5" y2="174.5" class="net_3"/>
  <line x1="175.33333333333334" x2="175.33333333333334" y1="174.5" y2="114.5" class="net_3"/>
</svg>
