<svg xmlns="http://www.w3.org/2000/svg" xmlns:xlink="http://www.w3.org/1999/xlink" xmlns:s="https://github.com/nturley/netlistsvg" width="954" height="524.5">
  <style>svg {
    stroke:#000;
    fill:none;
  }
  text {
    fill:#000;
    stroke:none;
    font-size:10px;
    font-weight: bold;
    font-family: "Courier New", monospace;
  }
  .nodelabel {
    text-anchor: middle;
  }
  .inputPortLabel {
    text-anchor: end;
  }
  .splitjoinBody {
    fill:#000;
  }</style>
  <g s:type="add" transform="translate(307,53)" s:width="25" s:height="25" id="cell_$add$zero_one.sv:0$10">
    <s:alias val="$add"/>
    <circle r="12.5" cx="12.5" cy="12.5" class="cell_$add$zero_one.sv:0$10"/>
    <line x1="7.5" x2="17.5" y1="12.5" y2="12.5" class="cell_$add$zero_one.sv:0$10"/>
    <line x1="12.5" x2="12.5" y1="7.5" y2="17.5" class="cell_$add$zero_one.sv:0$10"/>
    <g s:x="3" s:y="5" s:pid="A"/>
    <g s:x="3" s:y="20" s:pid="B"/>
    <g s:x="25" s:y="12.5" s:pid="Y"/>
  </g>
  <g s:type="add" transform="translate(422,426)" s:width="25" s:height="25" id="cell_$add$zero_one.sv:0$12">
    <s:alias val="$add"/>
    <circle r="12.5" cx="12.5" cy="12.5" class="cell_$add$zero_one.sv:0$12"/>
    <line x1="7.5" x2="17.5" y1="12.5" y2="12.5" class="cell_$add$zero_one.sv:0$12"/>
    <line x1="12.5" x2="12.5" y1="7.5" y2="17.5" class="cell_$add$zero_one.sv:0$12"/>
    <g s:x="3" s:y="5" s:pid="A"/>
    <g s:x="3" s:y="20" s:pid="B"/>
    <g s:x="25" s:y="12.5" s:pid="Y"/>
  </g>
  <g s:type="add" transform="translate(422,79)" s:width="25" s:height="25" id="cell_$add$zero_one.sv:0$13">
    <s:alias val="$add"/>
    <circle r="12.5" cx="12.5" cy="12.5" class="cell_$add$zero_one.sv:0$13"/>
    <line x1="7.5" x2="17.5" y1="12.5" y2="12.5" class="cell_$add$zero_one.sv:0$13"/>
    <line x1="12.5" x2="12.5" y1="7.5" y2="17.5" class="cell_$add$zero_one.sv:0$13"/>
    <g s:x="3" s:y="5" s:pid="A"/>
    <g s:x="3" s:y="20" s:pid="B"/>
    <g s:x="25" s:y="12.5" s:pid="Y"/>
  </g>
  <g s:type="add" transform="translate(537,443.5)" s:width="25" s:height="25" id="cell_$add$zero_one.sv:0$15">
    <s:alias val="$add"/>
    <circle r="12.5" cx="12.5" cy="12.5" class="cell_$add$zero_one.sv:0$15"/>
    <line x1="7.5" x2="17.5" y1="12.5" y2="12.5" class="cell_$add$zero_one.sv:0$15"/>
    <line x1="12.5" x2="12.5" y1="7.5" y2="17.5" class="cell_$add$zero_one.sv:0$15"/>
    <g s:x="3" s:y="5" s:pid="A"/>
    <g s:x="3" s:y="20" s:pid="B"/>
    <g s:x="25" s:y="12.5" s:pid="Y"/>
  </g>
  <g s:type="add" transform="translate(537,125)" s:width="25" s:height="25" id="cell_$add$zero_one.sv:0$16">
    <s:alias val="$add"/>
    <circle r="12.5" cx="12.5" cy="12.5" class="cell_$add$zero_one.sv:0$16"/>
    <line x1="7.5" x2="17.5" y1="12.5" y2="12.5" class="cell_$add$zero_one.sv:0$16"/>
    <line x1="12.5" x2="12.5" y1="7.5" y2="17.5" class="cell_$add$zero_one.sv:0$16"/>
    <g s:x="3" s:y="5" s:pid="A"/>
    <g s:x="3" s:y="20" s:pid="B"/>
    <g s:x="25" s:y="12.5" s:pid="Y"/>
  </g>
  <g s:type="add" transform="translate(652,395)" s:width="25" s:height="25" id="cell_$add$zero_one.sv:0$18">
    <s:alias val="$add"/>
    <circle r="12.5" cx="12.5" cy="12.5" class="cell_$add$zero_one.sv:0$18"/>
    <line x1="7.5" x2="17.5" y1="12.5" y2="12.5" class="cell_$add$zero_one.sv:0$18"/>
    <line x1="12.5" x2="12.5" y1="7.5" y2="17.5" class="cell_$add$zero_one.sv:0$18"/>
    <g s:x="3" s:y="5" s:pid="A"/>
    <g s:x="3" s:y="20" s:pid="B"/>
    <g s:x="25" s:y="12.5" s:pid="Y"/>
  </g>
  <g s:type="add" transform="translate(652,140)" s:width="25" s:height="25" id="cell_$add$zero_one.sv:0$19">
    <s:alias val="$add"/>
    <circle r="12.5" cx="12.5" cy="12.5" class="cell_$add$zero_one.sv:0$19"/>
    <line x1="7.5" x2="17.5" y1="12.5" y2="12.5" class="cell_$add$zero_one.sv:0$19"/>
    <line x1="12.5" x2="12.5" y1="7.5" y2="17.5" class="cell_$add$zero_one.sv:0$19"/>
    <g s:x="3" s:y="5" s:pid="A"/>
    <g s:x="3" s:y="20" s:pid="B"/>
    <g s:x="25" s:y="12.5" s:pid="Y"/>
  </g>
  <g s:type="add" transform="translate(307,207.5)" s:width="25" s:height="25" id="cell_$add$zero_one.sv:0$9">
    <s:alias val="$add"/>
    <circle r="12.5" cx="12.5" cy="12.5" class="cell_$add$zero_one.sv:0$9"/>
    <line x1="7.5" x2="17.5" y1="12.5" y2="12.5" class="cell_$add$zero_one.sv:0$9"/>
    <line x1="12.5" x2="12.5" y1="7.5" y2="17.5" class="cell_$add$zero_one.sv:0$9"/>
    <g s:x="3" s:y="5" s:pid="A"/>
    <g s:x="3" s:y="20" s:pid="B"/>
    <g s:x="25" s:y="12.5" s:pid="Y"/>
  </g>
  <g s:type="add" transform="translate(770.3333333333334,397.5)" s:width="25" s:height="25" id="cell_$add$zero_one.sv:25$20">
    <s:alias val="$add"/>
    <circle r="12.5" cx="12.5" cy="12.5" class="cell_$add$zero_one.sv:25$20"/>
    <line x1="7.5" x2="17.5" y1="12.5" y2="12.5" class="cell_$add$zero_one.sv:25$20"/>
    <line x1="12.5" x2="12.5" y1="7.5" y2="17.5" class="cell_$add$zero_one.sv:25$20"/>
    <g s:x="3" s:y="5" s:pid="A"/>
    <g s:x="3" s:y="20" s:pid="B"/>
    <g s:x="25" s:y="12.5" s:pid="Y"/>
  </g>
  <g s:type="add" transform="translate(770.3333333333334,62)" s:width="25" s:height="25" id="cell_$add$zero_one.sv:26$21">
    <s:alias val="$add"/>
    <circle r="12.5" cx="12.5" cy="12.5" class="cell_$add$zero_one.sv:26$21"/>
    <line x1="7.5" x2="17.5" y1="12.5" y2="12.5" class="cell_$add$zero_one.sv:26$21"/>
    <line x1="12.5" x2="12.5" y1="7.5" y2="17.5" class="cell_$add$zero_one.sv:26$21"/>
    <g s:x="3" s:y="5" s:pid="A"/>
    <g s:x="3" s:y="20" s:pid="B"/>
    <g s:x="25" s:y="12.5" s:pid="Y"/>
  </g>
  <g s:type="dff" transform="translate(902,149.5)" s:width="30" s:height="40" id="cell_$procdff$59">
    <s:alias val="$dff"/>
    <s:alias val="$_DFF_"/>
    <s:alias val="$_DFF_P_"/>
    <rect width="30" height="40" x="0" y="0" class="cell_$procdff$59"/>
    <path d="M0,35 L5,30 L0,25" class="cell_$procdff$59"/>
    <g s:x="30" s:y="10" s:pid="Q"/>
    <g s:x="0" s:y="30" s:pid="CLK"/>
    <g s:x="0" s:y="30" s:pid="C"/>
    <g s:x="0" s:y="10" s:pid="D"/>
  </g>
  <g s:type="dff" transform="translate(902,74.5)" s:width="30" s:height="40" id="cell_$procdff$60">
    <s:alias val="$dff"/>
    <s:alias val="$_DFF_"/>
    <s:alias val="$_DFF_P_"/>
    <rect width="30" height="40" x="0" y="0" class="cell_$procdff$60"/>
    <path d="M0,35 L5,30 L0,25" class="cell_$procdff$60"/>
    <g s:x="30" s:y="10" s:pid="Q"/>
    <g s:x="0" s:y="30" s:pid="CLK"/>
    <g s:x="0" s:y="30" s:pid="C"/>
    <g s:x="0" s:y="10" s:pid="D"/>
  </g>
  <g s:type="mux" transform="translate(840.3333333333334,64.5)" s:width="20" s:height="40" id="cell_$procmux$24">
    <s:alias val="$pmux"/>
    <s:alias val="$mux"/>
    <s:alias val="$_MUX_"/>
    <path d="M0,0 L20,10 L20,30 L0,40 Z" class="cell_$procmux$24"/>
    <g s:x="0" s:y="10" s:pid="A"/>
    <g s:x="0" s:y="30" s:pid="B"/>
    <g s:x="10" s:y="35" s:pid="S"/>
    <g s:x="20" s:y="20" s:pid="Y"/>
  </g>
  <g s:type="mux" transform="translate(840.3333333333334,224.5)" s:width="20" s:height="40" id="cell_$procmux$27">
    <s:alias val="$pmux"/>
    <s:alias val="$mux"/>
    <s:alias val="$_MUX_"/>
    <path d="M0,0 L20,10 L20,30 L0,40 Z" class="cell_$procmux$27"/>
    <g s:x="0" s:y="10" s:pid="A"/>
    <g s:x="0" s:y="30" s:pid="B"/>
    <g s:x="10" s:y="35" s:pid="S"/>
    <g s:x="20" s:y="20" s:pid="Y"/>
  </g>
  <g s:type="mux" transform="translate(712,397.5)" s:width="20" s:height="40" id="cell_$procmux$30">
    <s:alias val="$pmux"/>
    <s:alias val="$mux"/>
    <s:alias val="$_MUX_"/>
    <path d="M0,0 L20,10 L20,30 L0,40 Z" class="cell_$procmux$30"/>
    <g s:x="0" s:y="10" s:pid="A"/>
    <g s:x="0" s:y="30" s:pid="B"/>
    <g s:x="10" s:y="35" s:pid="S"/>
    <g s:x="20" s:y="20" s:pid="Y"/>
  </g>
  <g s:type="mux" transform="translate(712,62)" s:width="20" s:height="40" id="cell_$procmux$33">
    <s:alias val="$pmux"/>
    <s:alias val="$mux"/>
    <s:alias val="$_MUX_"/>
    <path d="M0,0 L20,10 L20,30 L0,40 Z" class="cell_$procmux$33"/>
    <g s:x="0" s:y="10" s:pid="A"/>
    <g s:x="0" s:y="30" s:pid="B"/>
    <g s:x="10" s:y="35" s:pid="S"/>
    <g s:x="20" s:y="20" s:pid="Y"/>
  </g>
  <g s:type="mux" transform="translate(597,446)" s:width="20" s:height="40" id="cell_$procmux$36">
    <s:alias val="$pmux"/>
    <s:alias val="$mux"/>
    <s:alias val="$_MUX_"/>
    <path d="M0,0 L20,10 L20,30 L0,40 Z" class="cell_$procmux$36"/>
    <g s:x="0" s:y="10" s:pid="A"/>
    <g s:x="0" s:y="30" s:pid="B"/>
    <g s:x="10" s:y="35" s:pid="S"/>
    <g s:x="20" s:y="20" s:pid="Y"/>
  </g>
  <g s:type="mux" transform="translate(597,52)" s:width="20" s:height="40" id="cell_$procmux$39">
    <s:alias val="$pmux"/>
    <s:alias val="$mux"/>
    <s:alias val="$_MUX_"/>
    <path d="M0,0 L20,10 L20,30 L0,40 Z" class="cell_$procmux$39"/>
    <g s:x="0" s:y="10" s:pid="A"/>
    <g s:x="0" s:y="30" s:pid="B"/>
    <g s:x="10" s:y="35" s:pid="S"/>
    <g s:x="20" s:y="20" s:pid="Y"/>
  </g>
  <g s:type="mux" transform="translate(482,428.5)" s:width="20" s:height="40" id="cell_$procmux$42">
    <s:alias val="$pmux"/>
    <s:alias val="$mux"/>
    <s:alias val="$_MUX_"/>
    <path d="M0,0 L20,10 L20,30 L0,40 Z" class="cell_$procmux$42"/>
    <g s:x="0" s:y="10" s:pid="A"/>
    <g s:x="0" s:y="30" s:pid="B"/>
    <g s:x="10" s:y="35" s:pid="S"/>
    <g s:x="20" s:y="20" s:pid="Y"/>
  </g>
  <g s:type="mux" transform="translate(482,42)" s:width="20" s:height="40" id="cell_$procmux$45">
    <s:alias val="$pmux"/>
    <s:alias val="$mux"/>
    <s:alias val="$_MUX_"/>
    <path d="M0,0 L20,10 L20,30 L0,40 Z" class="cell_$procmux$45"/>
    <g s:x="0" s:y="10" s:pid="A"/>
    <g s:x="0" s:y="30" s:pid="B"/>
    <g s:x="10" s:y="35" s:pid="S"/>
    <g s:x="20" s:y="20" s:pid="Y"/>
  </g>
  <g s:type="mux" transform="translate(367,210)" s:width="20" s:height="40" id="cell_$procmux$48">
    <s:alias val="$pmux"/>
    <s:alias val="$mux"/>
    <s:alias val="$_MUX_"/>
    <path d="M0,0 L20,10 L20,30 L0,40 Z" class="cell_$procmux$48"/>
    <g s:x="0" s:y="10" s:pid="A"/>
    <g s:x="0" s:y="30" s:pid="B"/>
    <g s:x="10" s:y="35" s:pid="S"/>
    <g s:x="20" s:y="20" s:pid="Y"/>
  </g>
  <g s:type="mux" transform="translate(367,32)" s:width="20" s:height="40" id="cell_$procmux$51">
    <s:alias val="$pmux"/>
    <s:alias val="$mux"/>
    <s:alias val="$_MUX_"/>
    <path d="M0,0 L20,10 L20,30 L0,40 Z" class="cell_$procmux$51"/>
    <g s:x="0" s:y="10" s:pid="A"/>
    <g s:x="0" s:y="30" s:pid="B"/>
    <g s:x="10" s:y="35" s:pid="S"/>
    <g s:x="20" s:y="20" s:pid="Y"/>
  </g>
  <g s:type="mux" transform="translate(180.33333333333334,267.5)" s:width="20" s:height="40" id="cell_$procmux$54">
    <s:alias val="$pmux"/>
    <s:alias val="$mux"/>
    <s:alias val="$_MUX_"/>
    <path d="M0,0 L20,10 L20,30 L0,40 Z" class="cell_$procmux$54"/>
    <g s:x="0" s:y="10" s:pid="A"/>
    <g s:x="0" s:y="30" s:pid="B"/>
    <g s:x="10" s:y="35" s:pid="S"/>
    <g s:x="20" s:y="20" s:pid="Y"/>
  </g>
  <g s:type="mux" transform="translate(180.33333333333334,12)" s:width="20" s:height="40" id="cell_$procmux$57">
    <s:alias val="$pmux"/>
    <s:alias val="$mux"/>
    <s:alias val="$_MUX_"/>
    <path d="M0,0 L20,10 L20,30 L0,40 Z" class="cell_$procmux$57"/>
    <g s:x="0" s:y="10" s:pid="A"/>
    <g s:x="0" s:y="30" s:pid="B"/>
    <g s:x="10" s:y="35" s:pid="S"/>
    <g s:x="20" s:y="20" s:pid="Y"/>
  </g>
  <g s:type="inputExt" transform="translate(837,169.5)" s:width="30" s:height="20" id="cell_clk">
    <text x="15" y="-4" class="nodelabel cell_clk" s:attribute="ref">clk</text>
    <s:alias val="$_inputExt_"/>
    <path d="M0,0 L0,20 L15,20 L30,10 L15,0 Z" class="cell_clk"/>
    <g s:x="28" s:y="10" s:pid="Y"/>
  </g>
  <g s:type="inputExt" transform="translate(767,309.5)" s:width="30" s:height="20" id="cell_rst">
    <text x="15" y="-4" class="nodelabel cell_rst" s:attribute="ref">rst</text>
    <s:alias val="$_inputExt_"/>
    <path d="M0,0 L0,20 L15,20 L30,10 L15,0 Z" class="cell_rst"/>
    <g s:x="28" s:y="10" s:pid="Y"/>
  </g>
  <g s:type="inputExt" transform="translate(12,353)" s:width="30" s:height="20" id="cell_num">
    <text x="15" y="-4" class="nodelabel cell_num" s:attribute="ref">num</text>
    <s:alias val="$_inputExt_"/>
    <path d="M0,0 L0,20 L15,20 L30,10 L15,0 Z" class="cell_num"/>
    <g s:x="28" s:y="10" s:pid="Y"/>
  </g>
  <g s:type="outputExt" transform="translate(902,400)" s:width="30" s:height="20" id="cell_zeros">
    <text x="15" y="-4" class="nodelabel cell_zeros" s:attribute="ref">zeros</text>
    <s:alias val="$_outputExt_"/>
    <path d="M30,0 L30,20 L15,20 L0,10 L15,0 Z" class="cell_zeros"/>
    <g s:x="0" s:y="10" s:pid="A"/>
  </g>
  <g s:type="outputExt" transform="translate(902,22)" s:width="30" s:height="20" id="cell_ones">
    <text x="15" y="-4" class="nodelabel cell_ones" s:attribute="ref">ones</text>
    <s:alias val="$_outputExt_"/>
    <path d="M30,0 L30,20 L15,20 L0,10 L15,0 Z" class="cell_ones"/>
    <g s:x="0" s:y="10" s:pid="A"/>
  </g>
  <g s:type="constant" transform="translate(177,212.5)" s:width="30" s:height="20" id="cell_0000000000000000000000000000000">
    <text x="15" y="-4" class="nodelabel cell_0000000000000000000000000000000" s:attribute="ref">0x0</text>
    <s:alias val="$_constant_"/>
    <rect width="30" height="20" class="cell_0000000000000000000000000000000"/>
    <g s:x="30" s:y="10" s:pid="Y"/>
  </g>
  <g s:type="constant" transform="translate(242,135)" s:width="30" s:height="20" id="cell_01">
    <text x="15" y="-4" class="nodelabel cell_01" s:attribute="ref">01</text>
    <s:alias val="$_constant_"/>
    <rect width="30" height="20" class="cell_01"/>
    <g s:x="30" s:y="10" s:pid="Y"/>
  </g>
  <g s:type="constant" transform="translate(767,244.5)" s:width="30" s:height="20" id="cell_00000000000000000000000000000000">
    <text x="15" y="-4" class="nodelabel cell_00000000000000000000000000000000" s:attribute="ref">0x0</text>
    <s:alias val="$_constant_"/>
    <rect width="30" height="20" class="cell_00000000000000000000000000000000"/>
    <g s:x="30" s:y="10" s:pid="Y"/>
  </g>
  <g s:type="constant" transform="translate(77,32)" s:width="30" s:height="20" id="cell_1">
    <text x="15" y="-4" class="nodelabel cell_1" s:attribute="ref">1</text>
    <s:alias val="$_constant_"/>
    <rect width="30" height="20" class="cell_1"/>
    <g s:x="30" s:y="10" s:pid="Y"/>
  </g>
  <g s:type="constant" transform="translate(77,287.5)" s:width="30" s:height="20" id="cell_0">
    <text x="15" y="-4" class="nodelabel cell_0" s:attribute="ref">0</text>
    <s:alias val="$_constant_"/>
    <rect width="30" height="20" class="cell_0"/>
    <g s:x="30" s:y="10" s:pid="Y"/>
  </g>
  <g s:type="join" transform="translate(253,21.5)" s:width="4" s:height="40" id="cell_$join$,73,715,716,717,718,719,720,721,722,723,724,725,726,727,728,729,730,731,732,733,734,735,736,737,738,739,740,741,742,743,744,745,">
    <rect width="5" height="40" class="splitjoinBody" s:generic="body"/>
    <s:alias val="$_join_"/>
    <g s:x="5" s:y="20" s:pid="out"/>
    <g transform="translate(0,10)" s:x="0" s:y="10" s:pid="in0">
      <text x="-3" y="-4" class="inputPortLabel">0</text>
    </g>
    <g transform="translate(0,30)" s:x="0" s:y="10" s:pid="in0">
      <text x="-3" y="-4" class="inputPortLabel">1:31</text>
    </g>
  </g>
  <g s:type="join" transform="translate(253,192)" s:width="4" s:height="40" id="cell_$join$,490,715,716,717,718,719,720,721,722,723,724,725,726,727,728,729,730,731,732,733,734,735,736,737,738,739,740,741,742,743,744,745,">
    <rect width="5" height="40" class="splitjoinBody" s:generic="body"/>
    <s:alias val="$_join_"/>
    <g s:x="5" s:y="20" s:pid="out"/>
    <g transform="translate(0,10)" s:x="0" s:y="10" s:pid="in0">
      <text x="-3" y="-4" class="inputPortLabel">0</text>
    </g>
    <g transform="translate(0,30)" s:x="0" s:y="10" s:pid="in0">
      <text x="-3" y="-4" class="inputPortLabel">1:31</text>
    </g>
  </g>
  <g s:type="split" transform="translate(92.8,342.5)" s:width="5" s:height="40" id="cell_$split$,4,5,6,7,8,">
    <rect width="5" height="100" class="splitjoinBody" s:generic="body"/>
    <s:alias val="$_split_"/>
    <g s:x="0" s:y="20" s:pid="in"/>
    <g transform="translate(4,10)" s:x="4" s:y="10" s:pid="out0">
      <text x="5" y="-4">4</text>
    </g>
    <g transform="translate(4,30)" s:x="4" s:y="10" s:pid="out0">
      <text x="5" y="-4">3</text>
    </g>
    <g transform="translate(4,50)" s:x="4" s:y="10" s:pid="out0">
      <text x="5" y="-4">2</text>
    </g>
    <g transform="translate(4,70)" s:x="4" s:y="10" s:pid="out0">
      <text x="5" y="-4">1</text>
    </g>
    <g transform="translate(4,90)" s:x="4" s:y="10" s:pid="out0">
      <text x="5" y="-4">0</text>
    </g>
  </g>
  <line x1="259" x2="282" y1="42" y2="42" class="net_73,715,716,717,718,719,720,721,722,723,724,725,726,727,728,729,730,731,732,733,734,735,736,737,738,739,740,741,742,743,744,745"/>
  <line x1="282" x2="282" y1="42" y2="58" class="net_73,715,716,717,718,719,720,721,722,723,724,725,726,727,728,729,730,731,732,733,734,735,736,737,738,739,740,741,742,743,744,745"/>
  <circle cx="282" cy="42" r="2" style="fill:#000" class="net_73,715,716,717,718,719,720,721,722,723,724,725,726,727,728,729,730,731,732,733,734,735,736,737,738,739,740,741,742,743,744,745"/>
  <line x1="282" x2="310" y1="58" y2="58" class="net_73,715,716,717,718,719,720,721,722,723,724,725,726,727,728,729,730,731,732,733,734,735,736,737,738,739,740,741,742,743,744,745"/>
  <line x1="259" x2="367" y1="42" y2="42" class="net_73,715,716,717,718,719,720,721,722,723,724,725,726,727,728,729,730,731,732,733,734,735,736,737,738,739,740,741,742,743,744,745"/>
  <line x1="272" x2="292" y1="145" y2="145" class="net_746,747"/>
  <line x1="292" x2="292" y1="145" y2="73" class="net_746,747"/>
  <circle cx="292" cy="145" r="2" style="fill:#000" class="net_746,747"/>
  <line x1="292" x2="310" y1="73" y2="73" class="net_746,747"/>
  <line x1="272" x2="292" y1="145" y2="145" class="net_746,747"/>
  <line x1="292" x2="292" y1="145" y2="415" class="net_746,747"/>
  <line x1="292" x2="397" y1="415" y2="415" class="net_746,747"/>
  <line x1="397" x2="397" y1="415" y2="446" class="net_746,747"/>
  <circle cx="292" cy="415" r="2" style="fill:#000" class="net_746,747"/>
  <circle cx="397" cy="415" r="2" style="fill:#000" class="net_746,747"/>
  <line x1="397" x2="425" y1="446" y2="446" class="net_746,747"/>
  <line x1="272" x2="292" y1="145" y2="145" class="net_746,747"/>
  <line x1="292" x2="292" y1="145" y2="99" class="net_746,747"/>
  <circle cx="292" cy="99" r="2" style="fill:#000" class="net_746,747"/>
  <line x1="292" x2="425" y1="99" y2="99" class="net_746,747"/>
  <line x1="272" x2="292" y1="145" y2="145" class="net_746,747"/>
  <line x1="292" x2="292" y1="145" y2="489.5" class="net_746,747"/>
  <line x1="292" x2="512" y1="489.5" y2="489.5" class="net_746,747"/>
  <line x1="512" x2="512" y1="489.5" y2="463.5" class="net_746,747"/>
  <line x1="512" x2="540" y1="463.5" y2="463.5" class="net_746,747"/>
  <line x1="272" x2="540" y1="145" y2="145" class="net_746,747"/>
  <line x1="272" x2="292" y1="145" y2="145" class="net_746,747"/>
  <line x1="292" x2="292" y1="145" y2="415" class="net_746,747"/>
  <line x1="292" x2="655" y1="415" y2="415" class="net_746,747"/>
  <line x1="272" x2="512" y1="145" y2="145" class="net_746,747"/>
  <line x1="512" x2="512" y1="145" y2="160" class="net_746,747"/>
  <circle cx="512" cy="145" r="2" style="fill:#000" class="net_746,747"/>
  <line x1="512" x2="655" y1="160" y2="160" class="net_746,747"/>
  <line x1="272" x2="292" y1="145" y2="145" class="net_746,747"/>
  <line x1="292" x2="292" y1="145" y2="227.5" class="net_746,747"/>
  <circle cx="292" cy="227.5" r="2" style="fill:#000" class="net_746,747"/>
  <line x1="292" x2="310" y1="227.5" y2="227.5" class="net_746,747"/>
  <line x1="387" x2="407" y1="230" y2="230" class="net_106,107,108,109,110,111,112,113,114,115,116,117,118,119,120,121,122,123,124,125,126,127,128,129,130,131,132,133,134,135,136,137"/>
  <line x1="407" x2="407" y1="230" y2="431" class="net_106,107,108,109,110,111,112,113,114,115,116,117,118,119,120,121,122,123,124,125,126,127,128,129,130,131,132,133,134,135,136,137"/>
  <circle cx="407" cy="431" r="2" style="fill:#000" class="net_106,107,108,109,110,111,112,113,114,115,116,117,118,119,120,121,122,123,124,125,126,127,128,129,130,131,132,133,134,135,136,137"/>
  <line x1="407" x2="425" y1="431" y2="431" class="net_106,107,108,109,110,111,112,113,114,115,116,117,118,119,120,121,122,123,124,125,126,127,128,129,130,131,132,133,134,135,136,137"/>
  <line x1="387" x2="407" y1="230" y2="230" class="net_106,107,108,109,110,111,112,113,114,115,116,117,118,119,120,121,122,123,124,125,126,127,128,129,130,131,132,133,134,135,136,137"/>
  <line x1="407" x2="407" y1="230" y2="461" class="net_106,107,108,109,110,111,112,113,114,115,116,117,118,119,120,121,122,123,124,125,126,127,128,129,130,131,132,133,134,135,136,137"/>
  <line x1="407" x2="457" y1="461" y2="461" class="net_106,107,108,109,110,111,112,113,114,115,116,117,118,119,120,121,122,123,124,125,126,127,128,129,130,131,132,133,134,135,136,137"/>
  <line x1="457" x2="457" y1="461" y2="458.5" class="net_106,107,108,109,110,111,112,113,114,115,116,117,118,119,120,121,122,123,124,125,126,127,128,129,130,131,132,133,134,135,136,137"/>
  <line x1="457" x2="482" y1="458.5" y2="458.5" class="net_106,107,108,109,110,111,112,113,114,115,116,117,118,119,120,121,122,123,124,125,126,127,128,129,130,131,132,133,134,135,136,137"/>
  <line x1="387" x2="397" y1="52" y2="52" class="net_170,171,172,173,174,175,176,177,178,179,180,181,182,183,184,185,186,187,188,189,190,191,192,193,194,195,196,197,198,199,200,201"/>
  <line x1="397" x2="397" y1="52" y2="84" class="net_170,171,172,173,174,175,176,177,178,179,180,181,182,183,184,185,186,187,188,189,190,191,192,193,194,195,196,197,198,199,200,201"/>
  <circle cx="397" cy="52" r="2" style="fill:#000" class="net_170,171,172,173,174,175,176,177,178,179,180,181,182,183,184,185,186,187,188,189,190,191,192,193,194,195,196,197,198,199,200,201"/>
  <line x1="397" x2="425" y1="84" y2="84" class="net_170,171,172,173,174,175,176,177,178,179,180,181,182,183,184,185,186,187,188,189,190,191,192,193,194,195,196,197,198,199,200,201"/>
  <line x1="387" x2="482" y1="52" y2="52" class="net_170,171,172,173,174,175,176,177,178,179,180,181,182,183,184,185,186,187,188,189,190,191,192,193,194,195,196,197,198,199,200,201"/>
  <line x1="502" x2="540" y1="448.5" y2="448.5" class="net_234,235,236,237,238,239,240,241,242,243,244,245,246,247,248,249,250,251,252,253,254,255,256,257,258,259,260,261,262,263,264,265"/>
  <line x1="502" x2="522" y1="448.5" y2="448.5" class="net_234,235,236,237,238,239,240,241,242,243,244,245,246,247,248,249,250,251,252,253,254,255,256,257,258,259,260,261,262,263,264,265"/>
  <line x1="522" x2="522" y1="448.5" y2="478.5" class="net_234,235,236,237,238,239,240,241,242,243,244,245,246,247,248,249,250,251,252,253,254,255,256,257,258,259,260,261,262,263,264,265"/>
  <line x1="522" x2="572" y1="478.5" y2="478.5" class="net_234,235,236,237,238,239,240,241,242,243,244,245,246,247,248,249,250,251,252,253,254,255,256,257,258,259,260,261,262,263,264,265"/>
  <line x1="572" x2="572" y1="478.5" y2="476" class="net_234,235,236,237,238,239,240,241,242,243,244,245,246,247,248,249,250,251,252,253,254,255,256,257,258,259,260,261,262,263,264,265"/>
  <circle cx="522" cy="448.5" r="2" style="fill:#000" class="net_234,235,236,237,238,239,240,241,242,243,244,245,246,247,248,249,250,251,252,253,254,255,256,257,258,259,260,261,262,263,264,265"/>
  <line x1="572" x2="597" y1="476" y2="476" class="net_234,235,236,237,238,239,240,241,242,243,244,245,246,247,248,249,250,251,252,253,254,255,256,257,258,259,260,261,262,263,264,265"/>
  <line x1="502" x2="512" y1="62" y2="62" class="net_298,299,300,301,302,303,304,305,306,307,308,309,310,311,312,313,314,315,316,317,318,319,320,321,322,323,324,325,326,327,328,329"/>
  <line x1="512" x2="512" y1="62" y2="130" class="net_298,299,300,301,302,303,304,305,306,307,308,309,310,311,312,313,314,315,316,317,318,319,320,321,322,323,324,325,326,327,328,329"/>
  <circle cx="512" cy="62" r="2" style="fill:#000" class="net_298,299,300,301,302,303,304,305,306,307,308,309,310,311,312,313,314,315,316,317,318,319,320,321,322,323,324,325,326,327,328,329"/>
  <line x1="512" x2="540" y1="130" y2="130" class="net_298,299,300,301,302,303,304,305,306,307,308,309,310,311,312,313,314,315,316,317,318,319,320,321,322,323,324,325,326,327,328,329"/>
  <line x1="502" x2="597" y1="62" y2="62" class="net_298,299,300,301,302,303,304,305,306,307,308,309,310,311,312,313,314,315,316,317,318,319,320,321,322,323,324,325,326,327,328,329"/>
  <line x1="617" x2="627" y1="466" y2="466" class="net_362,363,364,365,366,367,368,369,370,371,372,373,374,375,376,377,378,379,380,381,382,383,384,385,386,387,388,389,390,391,392,393"/>
  <line x1="627" x2="627" y1="466" y2="400" class="net_362,363,364,365,366,367,368,369,370,371,372,373,374,375,376,377,378,379,380,381,382,383,384,385,386,387,388,389,390,391,392,393"/>
  <circle cx="627" cy="466" r="2" style="fill:#000" class="net_362,363,364,365,366,367,368,369,370,371,372,373,374,375,376,377,378,379,380,381,382,383,384,385,386,387,388,389,390,391,392,393"/>
  <line x1="627" x2="655" y1="400" y2="400" class="net_362,363,364,365,366,367,368,369,370,371,372,373,374,375,376,377,378,379,380,381,382,383,384,385,386,387,388,389,390,391,392,393"/>
  <line x1="617" x2="687" y1="466" y2="466" class="net_362,363,364,365,366,367,368,369,370,371,372,373,374,375,376,377,378,379,380,381,382,383,384,385,386,387,388,389,390,391,392,393"/>
  <line x1="687" x2="687" y1="466" y2="427.5" class="net_362,363,364,365,366,367,368,369,370,371,372,373,374,375,376,377,378,379,380,381,382,383,384,385,386,387,388,389,390,391,392,393"/>
  <line x1="687" x2="712" y1="427.5" y2="427.5" class="net_362,363,364,365,366,367,368,369,370,371,372,373,374,375,376,377,378,379,380,381,382,383,384,385,386,387,388,389,390,391,392,393"/>
  <line x1="617" x2="627" y1="72" y2="72" class="net_426,427,428,429,430,431,432,433,434,435,436,437,438,439,440,441,442,443,444,445,446,447,448,449,450,451,452,453,454,455,456,457"/>
  <line x1="627" x2="627" y1="72" y2="145" class="net_426,427,428,429,430,431,432,433,434,435,436,437,438,439,440,441,442,443,444,445,446,447,448,449,450,451,452,453,454,455,456,457"/>
  <circle cx="627" cy="72" r="2" style="fill:#000" class="net_426,427,428,429,430,431,432,433,434,435,436,437,438,439,440,441,442,443,444,445,446,447,448,449,450,451,452,453,454,455,456,457"/>
  <line x1="627" x2="655" y1="145" y2="145" class="net_426,427,428,429,430,431,432,433,434,435,436,437,438,439,440,441,442,443,444,445,446,447,448,449,450,451,452,453,454,455,456,457"/>
  <line x1="617" x2="712" y1="72" y2="72" class="net_426,427,428,429,430,431,432,433,434,435,436,437,438,439,440,441,442,443,444,445,446,447,448,449,450,451,452,453,454,455,456,457"/>
  <line x1="259" x2="310" y1="212.5" y2="212.5" class="net_490,715,716,717,718,719,720,721,722,723,724,725,726,727,728,729,730,731,732,733,734,735,736,737,738,739,740,741,742,743,744,745"/>
  <line x1="259" x2="282" y1="212.5" y2="212.5" class="net_490,715,716,717,718,719,720,721,722,723,724,725,726,727,728,729,730,731,732,733,734,735,736,737,738,739,740,741,742,743,744,745"/>
  <line x1="282" x2="282" y1="212.5" y2="242.5" class="net_490,715,716,717,718,719,720,721,722,723,724,725,726,727,728,729,730,731,732,733,734,735,736,737,738,739,740,741,742,743,744,745"/>
  <line x1="282" x2="342" y1="242.5" y2="242.5" class="net_490,715,716,717,718,719,720,721,722,723,724,725,726,727,728,729,730,731,732,733,734,735,736,737,738,739,740,741,742,743,744,745"/>
  <line x1="342" x2="342" y1="242.5" y2="240" class="net_490,715,716,717,718,719,720,721,722,723,724,725,726,727,728,729,730,731,732,733,734,735,736,737,738,739,740,741,742,743,744,745"/>
  <circle cx="282" cy="212.5" r="2" style="fill:#000" class="net_490,715,716,717,718,719,720,721,722,723,724,725,726,727,728,729,730,731,732,733,734,735,736,737,738,739,740,741,742,743,744,745"/>
  <line x1="342" x2="367" y1="240" y2="240" class="net_490,715,716,717,718,719,720,721,722,723,724,725,726,727,728,729,730,731,732,733,734,735,736,737,738,739,740,741,742,743,744,745"/>
  <line x1="932" x2="942" y1="159.5" y2="159.5" class="net_523,524,525,526,527,528,529,530,531,532,533,534,535,536,537,538,539,540,541,542,543,544,545,546,547,548,549,550,551,552,553,554"/>
  <line x1="942" x2="942" y1="159.5" y2="339.5" class="net_523,524,525,526,527,528,529,530,531,532,533,534,535,536,537,538,539,540,541,542,543,544,545,546,547,548,549,550,551,552,553,554"/>
  <line x1="942" x2="742" y1="339.5" y2="339.5" class="net_523,524,525,526,527,528,529,530,531,532,533,534,535,536,537,538,539,540,541,542,543,544,545,546,547,548,549,550,551,552,553,554"/>
  <line x1="742" x2="742" y1="339.5" y2="402.5" class="net_523,524,525,526,527,528,529,530,531,532,533,534,535,536,537,538,539,540,541,542,543,544,545,546,547,548,549,550,551,552,553,554"/>
  <line x1="742" x2="773.3333333333334" y1="402.5" y2="402.5" class="net_523,524,525,526,527,528,529,530,531,532,533,534,535,536,537,538,539,540,541,542,543,544,545,546,547,548,549,550,551,552,553,554"/>
  <line x1="732" x2="773.3333333333334" y1="417.5" y2="417.5" class="net_555,556,557,558,559,560,561,562,563,564,565,566,567,568,569,570,571,572,573,574,575,576,577,578,579,580,581,582,583,584,585,586"/>
  <line x1="932" x2="942" y1="84.5" y2="84.5" class="net_587,588,589,590,591,592,593,594,595,596,597,598,599,600,601,602,603,604,605,606,607,608,609,610,611,612,613,614,615,616,617,618"/>
  <line x1="942" x2="942" y1="84.5" y2="52" class="net_587,588,589,590,591,592,593,594,595,596,597,598,599,600,601,602,603,604,605,606,607,608,609,610,611,612,613,614,615,616,617,618"/>
  <line x1="942" x2="742" y1="52" y2="52" class="net_587,588,589,590,591,592,593,594,595,596,597,598,599,600,601,602,603,604,605,606,607,608,609,610,611,612,613,614,615,616,617,618"/>
  <line x1="742" x2="742" y1="52" y2="67" class="net_587,588,589,590,591,592,593,594,595,596,597,598,599,600,601,602,603,604,605,606,607,608,609,610,611,612,613,614,615,616,617,618"/>
  <line x1="742" x2="773.3333333333334" y1="67" y2="67" class="net_587,588,589,590,591,592,593,594,595,596,597,598,599,600,601,602,603,604,605,606,607,608,609,610,611,612,613,614,615,616,617,618"/>
  <line x1="732" x2="773.3333333333334" y1="82" y2="82" class="net_619,620,621,622,623,624,625,626,627,628,629,630,631,632,633,634,635,636,637,638,639,640,641,642,643,644,645,646,647,648,649,650"/>
  <line x1="865" x2="902" y1="179.5" y2="179.5" class="net_2"/>
  <line x1="865" x2="877" y1="179.5" y2="179.5" class="net_2"/>
  <line x1="877" x2="877" y1="179.5" y2="104.5" class="net_2"/>
  <circle cx="877" cy="179.5" r="2" style="fill:#000" class="net_2"/>
  <line x1="877" x2="902" y1="104.5" y2="104.5" class="net_2"/>
  <line x1="860.3333333333334" x2="887" y1="244.5" y2="244.5" class="net_651,652,653,654,655,656,657,658,659,660,661,662,663,664,665,666,667,668,669,670,671,672,673,674,675,676,677,678,679,680,681,682"/>
  <line x1="887" x2="887" y1="244.5" y2="159.5" class="net_651,652,653,654,655,656,657,658,659,660,661,662,663,664,665,666,667,668,669,670,671,672,673,674,675,676,677,678,679,680,681,682"/>
  <line x1="887" x2="902" y1="159.5" y2="159.5" class="net_651,652,653,654,655,656,657,658,659,660,661,662,663,664,665,666,667,668,669,670,671,672,673,674,675,676,677,678,679,680,681,682"/>
  <line x1="860.3333333333334" x2="902" y1="84.5" y2="84.5" class="net_683,684,685,686,687,688,689,690,691,692,693,694,695,696,697,698,699,700,701,702,703,704,705,706,707,708,709,710,711,712,713,714"/>
  <line x1="795.3333333333334" x2="840.3333333333334" y1="74.5" y2="74.5" class="net_41,42,43,44,45,46,47,48,49,50,51,52,53,54,55,56,57,58,59,60,61,62,63,64,65,66,67,68,69,70,71,72"/>
  <line x1="795.3333333333334" x2="807" y1="74.5" y2="74.5" class="net_41,42,43,44,45,46,47,48,49,50,51,52,53,54,55,56,57,58,59,60,61,62,63,64,65,66,67,68,69,70,71,72"/>
  <line x1="807" x2="807" y1="74.5" y2="32" class="net_41,42,43,44,45,46,47,48,49,50,51,52,53,54,55,56,57,58,59,60,61,62,63,64,65,66,67,68,69,70,71,72"/>
  <circle cx="807" cy="74.5" r="2" style="fill:#000" class="net_41,42,43,44,45,46,47,48,49,50,51,52,53,54,55,56,57,58,59,60,61,62,63,64,65,66,67,68,69,70,71,72"/>
  <line x1="807" x2="902" y1="32" y2="32" class="net_41,42,43,44,45,46,47,48,49,50,51,52,53,54,55,56,57,58,59,60,61,62,63,64,65,66,67,68,69,70,71,72"/>
  <line x1="797" x2="807" y1="254.5" y2="254.5" class="net_793,794,795,796,797,798,799,800,801,802,803,804,805,806,807,808,809,810,811,812,813,814,815,816,817,818,819,820,821,822,823,824"/>
  <line x1="807" x2="807" y1="254.5" y2="94.5" class="net_793,794,795,796,797,798,799,800,801,802,803,804,805,806,807,808,809,810,811,812,813,814,815,816,817,818,819,820,821,822,823,824"/>
  <circle cx="807" cy="254.5" r="2" style="fill:#000" class="net_793,794,795,796,797,798,799,800,801,802,803,804,805,806,807,808,809,810,811,812,813,814,815,816,817,818,819,820,821,822,823,824"/>
  <line x1="807" x2="840.3333333333334" y1="94.5" y2="94.5" class="net_793,794,795,796,797,798,799,800,801,802,803,804,805,806,807,808,809,810,811,812,813,814,815,816,817,818,819,820,821,822,823,824"/>
  <line x1="797" x2="840.3333333333334" y1="254.5" y2="254.5" class="net_793,794,795,796,797,798,799,800,801,802,803,804,805,806,807,808,809,810,811,812,813,814,815,816,817,818,819,820,821,822,823,824"/>
  <line x1="795" x2="817" y1="319.5" y2="319.5" class="net_3"/>
  <line x1="817" x2="817" y1="319.5" y2="149.5" class="net_3"/>
  <line x1="817" x2="850.3333333333334" y1="149.5" y2="149.5" class="net_3"/>
  <circle cx="817" cy="319.5" r="2" style="fill:#000" class="net_3"/>
  <line x1="850.3333333333334" x2="850.3333333333334" y1="149.5" y2="99.5" class="net_3"/>
  <line x1="795" x2="850.3333333333334" y1="319.5" y2="319.5" class="net_3"/>
  <line x1="850.3333333333334" x2="850.3333333333334" y1="319.5" y2="259.5" class="net_3"/>
  <line x1="795.3333333333334" x2="827" y1="410" y2="410" class="net_9,10,11,12,13,14,15,16,17,18,19,20,21,22,23,24,25,26,27,28,29,30,31,32,33,34,35,36,37,38,39,40"/>
  <line x1="827" x2="827" y1="410" y2="234.5" class="net_9,10,11,12,13,14,15,16,17,18,19,20,21,22,23,24,25,26,27,28,29,30,31,32,33,34,35,36,37,38,39,40"/>
  <circle cx="827" cy="410" r="2" style="fill:#000" class="net_9,10,11,12,13,14,15,16,17,18,19,20,21,22,23,24,25,26,27,28,29,30,31,32,33,34,35,36,37,38,39,40"/>
  <line x1="827" x2="840.3333333333334" y1="234.5" y2="234.5" class="net_9,10,11,12,13,14,15,16,17,18,19,20,21,22,23,24,25,26,27,28,29,30,31,32,33,34,35,36,37,38,39,40"/>
  <line x1="795.3333333333334" x2="902" y1="410" y2="410" class="net_9,10,11,12,13,14,15,16,17,18,19,20,21,22,23,24,25,26,27,28,29,30,31,32,33,34,35,36,37,38,39,40"/>
  <line x1="677" x2="712" y1="407.5" y2="407.5" class="net_394,395,396,397,398,399,400,401,402,403,404,405,406,407,408,409,410,411,412,413,414,415,416,417,418,419,420,421,422,423,424,425"/>
  <line x1="97.8" x2="167" y1="353" y2="353" class="net_8"/>
  <line x1="167" x2="167" y1="353" y2="511.5" class="net_8"/>
  <line x1="167" x2="722" y1="511.5" y2="511.5" class="net_8"/>
  <line x1="722" x2="722" y1="511.5" y2="432.5" class="net_8"/>
  <line x1="97.8" x2="167" y1="353" y2="353" class="net_8"/>
  <line x1="167" x2="167" y1="353" y2="384" class="net_8"/>
  <line x1="167" x2="722" y1="384" y2="384" class="net_8"/>
  <circle cx="167" cy="384" r="2" style="fill:#000" class="net_8"/>
  <line x1="722" x2="722" y1="384" y2="97" class="net_8"/>
  <line x1="677" x2="687" y1="152.5" y2="152.5" class="net_458,459,460,461,462,463,464,465,466,467,468,469,470,471,472,473,474,475,476,477,478,479,480,481,482,483,484,485,486,487,488,489"/>
  <line x1="687" x2="687" y1="152.5" y2="92" class="net_458,459,460,461,462,463,464,465,466,467,468,469,470,471,472,473,474,475,476,477,478,479,480,481,482,483,484,485,486,487,488,489"/>
  <line x1="687" x2="712" y1="92" y2="92" class="net_458,459,460,461,462,463,464,465,466,467,468,469,470,471,472,473,474,475,476,477,478,479,480,481,482,483,484,485,486,487,488,489"/>
  <line x1="562" x2="597" y1="456" y2="456" class="net_266,267,268,269,270,271,272,273,274,275,276,277,278,279,280,281,282,283,284,285,286,287,288,289,290,291,292,293,294,295,296,297"/>
  <line x1="97.8" x2="157" y1="373" y2="373" class="net_7"/>
  <line x1="157" x2="157" y1="373" y2="500.5" class="net_7"/>
  <line x1="157" x2="607" y1="500.5" y2="500.5" class="net_7"/>
  <circle cx="157" cy="373" r="2" style="fill:#000" class="net_7"/>
  <line x1="607" x2="607" y1="500.5" y2="481" class="net_7"/>
  <line x1="97.8" x2="607" y1="373" y2="373" class="net_7"/>
  <line x1="607" x2="607" y1="373" y2="87" class="net_7"/>
  <line x1="562" x2="572" y1="137.5" y2="137.5" class="net_330,331,332,333,334,335,336,337,338,339,340,341,342,343,344,345,346,347,348,349,350,351,352,353,354,355,356,357,358,359,360,361"/>
  <line x1="572" x2="572" y1="137.5" y2="82" class="net_330,331,332,333,334,335,336,337,338,339,340,341,342,343,344,345,346,347,348,349,350,351,352,353,354,355,356,357,358,359,360,361"/>
  <line x1="572" x2="597" y1="82" y2="82" class="net_330,331,332,333,334,335,336,337,338,339,340,341,342,343,344,345,346,347,348,349,350,351,352,353,354,355,356,357,358,359,360,361"/>
  <line x1="447" x2="482" y1="438.5" y2="438.5" class="net_138,139,140,141,142,143,144,145,146,147,148,149,150,151,152,153,154,155,156,157,158,159,160,161,162,163,164,165,166,167,168,169"/>
  <line x1="97.8" x2="147" y1="393" y2="393" class="net_6"/>
  <line x1="147" x2="147" y1="393" y2="478.5" class="net_6"/>
  <line x1="147" x2="492" y1="478.5" y2="478.5" class="net_6"/>
  <circle cx="147" cy="393" r="2" style="fill:#000" class="net_6"/>
  <line x1="492" x2="492" y1="478.5" y2="463.5" class="net_6"/>
  <line x1="97.8" x2="147" y1="393" y2="393" class="net_6"/>
  <line x1="147" x2="147" y1="393" y2="114" class="net_6"/>
  <line x1="147" x2="492" y1="114" y2="114" class="net_6"/>
  <line x1="492" x2="492" y1="114" y2="77" class="net_6"/>
  <line x1="447" x2="457" y1="91.5" y2="91.5" class="net_202,203,204,205,206,207,208,209,210,211,212,213,214,215,216,217,218,219,220,221,222,223,224,225,226,227,228,229,230,231,232,233"/>
  <line x1="457" x2="457" y1="91.5" y2="72" class="net_202,203,204,205,206,207,208,209,210,211,212,213,214,215,216,217,218,219,220,221,222,223,224,225,226,227,228,229,230,231,232,233"/>
  <line x1="457" x2="482" y1="72" y2="72" class="net_202,203,204,205,206,207,208,209,210,211,212,213,214,215,216,217,218,219,220,221,222,223,224,225,226,227,228,229,230,231,232,233"/>
  <line x1="332" x2="367" y1="220" y2="220" class="net_491,492,493,494,495,496,497,498,499,500,501,502,503,504,505,506,507,508,509,510,511,512,513,514,515,516,517,518,519,520,521,522"/>
  <line x1="97.8" x2="137" y1="413" y2="413" class="net_5"/>
  <line x1="137" x2="137" y1="413" y2="362" class="net_5"/>
  <line x1="137" x2="377" y1="362" y2="362" class="net_5"/>
  <circle cx="137" cy="362" r="2" style="fill:#000" class="net_5"/>
  <line x1="377" x2="377" y1="362" y2="245" class="net_5"/>
  <line x1="97.8" x2="137" y1="413" y2="413" class="net_5"/>
  <line x1="137" x2="137" y1="413" y2="88" class="net_5"/>
  <line x1="137" x2="377" y1="88" y2="88" class="net_5"/>
  <line x1="377" x2="377" y1="88" y2="67" class="net_5"/>
  <line x1="332" x2="342" y1="65.5" y2="65.5" class="net_74,75,76,77,78,79,80,81,82,83,84,85,86,87,88,89,90,91,92,93,94,95,96,97,98,99,100,101,102,103,104,105"/>
  <line x1="342" x2="342" y1="65.5" y2="62" class="net_74,75,76,77,78,79,80,81,82,83,84,85,86,87,88,89,90,91,92,93,94,95,96,97,98,99,100,101,102,103,104,105"/>
  <line x1="342" x2="367" y1="62" y2="62" class="net_74,75,76,77,78,79,80,81,82,83,84,85,86,87,88,89,90,91,92,93,94,95,96,97,98,99,100,101,102,103,104,105"/>
  <line x1="107" x2="157" y1="42" y2="42" class="net_919"/>
  <line x1="157" x2="157" y1="42" y2="277.5" class="net_919"/>
  <circle cx="157" cy="42" r="2" style="fill:#000" class="net_919"/>
  <line x1="157" x2="180.33333333333334" y1="277.5" y2="277.5" class="net_919"/>
  <line x1="107" x2="180.33333333333334" y1="42" y2="42" class="net_919"/>
  <line x1="107" x2="180.33333333333334" y1="297.5" y2="297.5" class="net_920"/>
  <line x1="107" x2="117" y1="297.5" y2="297.5" class="net_920"/>
  <line x1="117" x2="117" y1="297.5" y2="22" class="net_920"/>
  <circle cx="117" cy="297.5" r="2" style="fill:#000" class="net_920"/>
  <line x1="117" x2="180.33333333333334" y1="22" y2="22" class="net_920"/>
  <line x1="97.3" x2="97.3" y1="433.5" y2="452.5" class="net_4"/>
  <line x1="97.3" x2="127" y1="452.5" y2="452.5" class="net_4"/>
  <line x1="127" x2="127" y1="452.5" y2="317.5" class="net_4"/>
  <line x1="127" x2="190.33333333333334" y1="317.5" y2="317.5" class="net_4"/>
  <circle cx="127" cy="317.5" r="2" style="fill:#000" class="net_4"/>
  <line x1="190.33333333333334" x2="190.33333333333334" y1="317.5" y2="302.5" class="net_4"/>
  <line x1="97.3" x2="97.3" y1="433.5" y2="452.5" class="net_4"/>
  <line x1="97.3" x2="127" y1="452.5" y2="452.5" class="net_4"/>
  <line x1="127" x2="127" y1="452.5" y2="78" class="net_4"/>
  <line x1="127" x2="190.33333333333334" y1="78" y2="78" class="net_4"/>
  <line x1="190.33333333333334" x2="190.33333333333334" y1="78" y2="47" class="net_4"/>
  <line x1="200.33333333333334" x2="253" y1="32" y2="32" class="net_73"/>
  <line x1="207" x2="217" y1="222.5" y2="222.5" class="net_715,716,717,718,719,720,721,722,723,724,725,726,727,728,729,730,731,732,733,734,735,736,737,738,739,740,741,742,743,744,745"/>
  <line x1="217" x2="217" y1="222.5" y2="52" class="net_715,716,717,718,719,720,721,722,723,724,725,726,727,728,729,730,731,732,733,734,735,736,737,738,739,740,741,742,743,744,745"/>
  <circle cx="217" cy="222.5" r="2" style="fill:#000" class="net_715,716,717,718,719,720,721,722,723,724,725,726,727,728,729,730,731,732,733,734,735,736,737,738,739,740,741,742,743,744,745"/>
  <line x1="217" x2="253" y1="52" y2="52" class="net_715,716,717,718,719,720,721,722,723,724,725,726,727,728,729,730,731,732,733,734,735,736,737,738,739,740,741,742,743,744,745"/>
  <line x1="207" x2="253" y1="222.5" y2="222.5" class="net_715,716,717,718,719,720,721,722,723,724,725,726,727,728,729,730,731,732,733,734,735,736,737,738,739,740,741,742,743,744,745"/>
  <line x1="200.33333333333334" x2="227" y1="287.5" y2="287.5" class="net_490"/>
  <line x1="227" x2="227" y1="287.5" y2="202.5" class="net_490"/>
  <line x1="227" x2="253" y1="202.5" y2="202.5" class="net_490"/>
  <line x1="40" x2="92.8" y1="363" y2="363" class="net_4,5,6,7,8"/>
</svg>
