<svg xmlns="http://www.w3.org/2000/svg" xmlns:xlink="http://www.w3.org/1999/xlink" xmlns:s="https://github.com/nturley/netlistsvg" width="324" height="371">
  <style>svg {
    stroke:#000;
    fill:none;
  }
  text {
    fill:#000;
    stroke:none;
    font-size:10px;
    font-weight: bold;
    font-family: "Courier New", monospace;
  }
  .nodelabel {
    text-anchor: middle;
  }
  .inputPortLabel {
    text-anchor: end;
  }
  .splitjoinBody {
    fill:#000;
  }</style>
  <g s:type="gt" transform="translate(77,280.5)" s:width="25" s:height="25" id="cell_$gt$min_max.sv:19$3">
    <s:alias val="$gt"/>
    <circle r="12.5" cx="12.5" cy="12.5" class="cell_$gt$min_max.sv:19$3"/>
    <line x1="7.5" x2="17.5" y1="7.5" y2="12.5" class="cell_$gt$min_max.sv:19$3"/>
    <line x1="7.5" x2="17.5" y1="17.5" y2="12.5" class="cell_$gt$min_max.sv:19$3"/>
    <g s:x="3" s:y="5" s:pid="A"/>
    <g s:x="3" s:y="20" s:pid="B"/>
    <g s:x="25" s:y="12.5" s:pid="Y"/>
  </g>
  <g s:type="lt" transform="translate(77,27)" s:width="25" s:height="25" id="cell_$lt$min_max.sv:15$2">
    <s:alias val="$lt"/>
    <circle r="12.5" cx="12.5" cy="12.5" class="cell_$lt$min_max.sv:15$2"/>
    <line x1="7.5" x2="17.5" y1="12.5" y2="7.5" class="cell_$lt$min_max.sv:15$2"/>
    <line x1="7.5" x2="17.5" y1="12.5" y2="17.5" class="cell_$lt$min_max.sv:15$2"/>
    <g s:x="3" s:y="5" s:pid="A"/>
    <g s:x="3" s:y="20" s:pid="B"/>
    <g s:x="25" s:y="12.5" s:pid="Y"/>
  </g>
  <g s:type="dff" transform="translate(272,113)" s:width="30" s:height="40" id="cell_$procdff$17">
    <s:alias val="$dff"/>
    <s:alias val="$_DFF_"/>
    <s:alias val="$_DFF_P_"/>
    <rect width="30" height="40" x="0" y="0" class="cell_$procdff$17"/>
    <path d="M0,35 L5,30 L0,25" class="cell_$procdff$17"/>
    <g s:x="30" s:y="10" s:pid="Q"/>
    <g s:x="0" s:y="30" s:pid="CLK"/>
    <g s:x="0" s:y="30" s:pid="C"/>
    <g s:x="0" s:y="10" s:pid="D"/>
  </g>
  <g s:type="dff" transform="translate(272,308)" s:width="30" s:height="40" id="cell_$procdff$18">
    <s:alias val="$dff"/>
    <s:alias val="$_DFF_"/>
    <s:alias val="$_DFF_P_"/>
    <rect width="30" height="40" x="0" y="0" class="cell_$procdff$18"/>
    <path d="M0,35 L5,30 L0,25" class="cell_$procdff$18"/>
    <g s:x="30" s:y="10" s:pid="Q"/>
    <g s:x="0" s:y="30" s:pid="CLK"/>
    <g s:x="0" s:y="30" s:pid="C"/>
    <g s:x="0" s:y="10" s:pid="D"/>
  </g>
  <g s:type="mux" transform="translate(148.66666666666666,243)" s:width="20" s:height="40" id="cell_$procmux$12">
    <s:alias val="$pmux"/>
    <s:alias val="$mux"/>
    <s:alias val="$_MUX_"/>
    <path d="M0,0 L20,10 L20,30 L0,40 Z" class="cell_$procmux$12"/>
    <g s:x="0" s:y="10" s:pid="A"/>
    <g s:x="0" s:y="30" s:pid="B"/>
    <g s:x="10" s:y="35" s:pid="S"/>
    <g s:x="20" s:y="20" s:pid="Y"/>
  </g>
  <g s:type="mux" transform="translate(148.66666666666666,32)" s:width="20" s:height="40" id="cell_$procmux$15">
    <s:alias val="$pmux"/>
    <s:alias val="$mux"/>
    <s:alias val="$_MUX_"/>
    <path d="M0,0 L20,10 L20,30 L0,40 Z" class="cell_$procmux$15"/>
    <g s:x="0" s:y="10" s:pid="A"/>
    <g s:x="0" s:y="30" s:pid="B"/>
    <g s:x="10" s:y="35" s:pid="S"/>
    <g s:x="20" s:y="20" s:pid="Y"/>
  </g>
  <g s:type="mux" transform="translate(210.33333333333334,298)" s:width="20" s:height="40" id="cell_$procmux$6">
    <s:alias val="$pmux"/>
    <s:alias val="$mux"/>
    <s:alias val="$_MUX_"/>
    <path d="M0,0 L20,10 L20,30 L0,40 Z" class="cell_$procmux$6"/>
    <g s:x="0" s:y="10" s:pid="A"/>
    <g s:x="0" s:y="30" s:pid="B"/>
    <g s:x="10" s:y="35" s:pid="S"/>
    <g s:x="20" s:y="20" s:pid="Y"/>
  </g>
  <g s:type="mux" transform="translate(210.33333333333334,103)" s:width="20" s:height="40" id="cell_$procmux$9">
    <s:alias val="$pmux"/>
    <s:alias val="$mux"/>
    <s:alias val="$_MUX_"/>
    <path d="M0,0 L20,10 L20,30 L0,40 Z" class="cell_$procmux$9"/>
    <g s:x="0" s:y="10" s:pid="A"/>
    <g s:x="0" s:y="30" s:pid="B"/>
    <g s:x="10" s:y="35" s:pid="S"/>
    <g s:x="20" s:y="20" s:pid="Y"/>
  </g>
  <g s:type="inputExt" transform="translate(207,218)" s:width="30" s:height="20" id="cell_clk">
    <text x="15" y="-4" class="nodelabel cell_clk" s:attribute="ref">clk</text>
    <s:alias val="$_inputExt_"/>
    <path d="M0,0 L0,20 L15,20 L30,10 L15,0 Z" class="cell_clk"/>
    <g s:x="28" s:y="10" s:pid="Y"/>
  </g>
  <g s:type="inputExt" transform="translate(142,188)" s:width="30" s:height="20" id="cell_rst">
    <text x="15" y="-4" class="nodelabel cell_rst" s:attribute="ref">rst</text>
    <s:alias val="$_inputExt_"/>
    <path d="M0,0 L0,20 L15,20 L30,10 L15,0 Z" class="cell_rst"/>
    <g s:x="28" s:y="10" s:pid="Y"/>
  </g>
  <g s:type="inputExt" transform="translate(12,22)" s:width="30" s:height="20" id="cell_num">
    <text x="15" y="-4" class="nodelabel cell_num" s:attribute="ref">num</text>
    <s:alias val="$_inputExt_"/>
    <path d="M0,0 L0,20 L15,20 L30,10 L15,0 Z" class="cell_num"/>
    <g s:x="28" s:y="10" s:pid="Y"/>
  </g>
  <g s:type="outputExt" transform="translate(272,42)" s:width="30" s:height="20" id="cell_min">
    <text x="15" y="-4" class="nodelabel cell_min" s:attribute="ref">min</text>
    <s:alias val="$_outputExt_"/>
    <path d="M30,0 L30,20 L15,20 L0,10 L15,0 Z" class="cell_min"/>
    <g s:x="0" s:y="10" s:pid="A"/>
  </g>
  <g s:type="outputExt" transform="translate(272,253)" s:width="30" s:height="20" id="cell_max">
    <text x="15" y="-4" class="nodelabel cell_max" s:attribute="ref">max</text>
    <s:alias val="$_outputExt_"/>
    <path d="M30,0 L30,20 L15,20 L0,10 L15,0 Z" class="cell_max"/>
    <g s:x="0" s:y="10" s:pid="A"/>
  </g>
  <g s:type="constant" transform="translate(142,318)" s:width="30" s:height="20" id="cell_0000">
    <text x="15" y="-4" class="nodelabel cell_0000" s:attribute="ref">0x0</text>
    <s:alias val="$_constant_"/>
    <rect width="30" height="20" class="cell_0000"/>
    <g s:x="30" s:y="10" s:pid="Y"/>
  </g>
  <g s:type="constant" transform="translate(142,123)" s:width="30" s:height="20" id="cell_1111">
    <text x="15" y="-4" class="nodelabel cell_1111" s:attribute="ref">0xf</text>
    <s:alias val="$_constant_"/>
    <rect width="30" height="20" class="cell_1111"/>
    <g s:x="30" s:y="10" s:pid="Y"/>
  </g>
  <line x1="40" x2="52" y1="32" y2="32" class="net_4,5,6,7"/>
  <line x1="52" x2="52" y1="32" y2="285.5" class="net_4,5,6,7"/>
  <circle cx="52" cy="32" r="2" style="fill:#000" class="net_4,5,6,7"/>
  <line x1="52" x2="80" y1="285.5" y2="285.5" class="net_4,5,6,7"/>
  <line x1="40" x2="80" y1="32" y2="32" class="net_4,5,6,7"/>
  <line x1="40" x2="52" y1="32" y2="32" class="net_4,5,6,7"/>
  <line x1="52" x2="52" y1="32" y2="62" class="net_4,5,6,7"/>
  <line x1="52" x2="112" y1="62" y2="62" class="net_4,5,6,7"/>
  <line x1="112" x2="112" y1="62" y2="273" class="net_4,5,6,7"/>
  <circle cx="52" cy="62" r="2" style="fill:#000" class="net_4,5,6,7"/>
  <circle cx="112" cy="62" r="2" style="fill:#000" class="net_4,5,6,7"/>
  <line x1="112" x2="148.66666666666666" y1="273" y2="273" class="net_4,5,6,7"/>
  <line x1="40" x2="52" y1="32" y2="32" class="net_4,5,6,7"/>
  <line x1="52" x2="52" y1="32" y2="62" class="net_4,5,6,7"/>
  <line x1="52" x2="148.66666666666666" y1="62" y2="62" class="net_4,5,6,7"/>
  <line x1="302" x2="312" y1="318" y2="318" class="net_16,17,18,19"/>
  <line x1="312" x2="312" y1="318" y2="358" class="net_16,17,18,19"/>
  <line x1="312" x2="62" y1="358" y2="358" class="net_16,17,18,19"/>
  <line x1="62" x2="62" y1="358" y2="300.5" class="net_16,17,18,19"/>
  <line x1="62" x2="80" y1="300.5" y2="300.5" class="net_16,17,18,19"/>
  <line x1="302" x2="312" y1="318" y2="318" class="net_16,17,18,19"/>
  <line x1="312" x2="312" y1="318" y2="358" class="net_16,17,18,19"/>
  <line x1="312" x2="122" y1="358" y2="358" class="net_16,17,18,19"/>
  <line x1="122" x2="122" y1="358" y2="253" class="net_16,17,18,19"/>
  <circle cx="122" cy="358" r="2" style="fill:#000" class="net_16,17,18,19"/>
  <line x1="122" x2="148.66666666666666" y1="253" y2="253" class="net_16,17,18,19"/>
  <line x1="302" x2="312" y1="123" y2="123" class="net_21,22,23,24"/>
  <line x1="312" x2="312" y1="123" y2="17" class="net_21,22,23,24"/>
  <line x1="312" x2="62" y1="17" y2="17" class="net_21,22,23,24"/>
  <line x1="62" x2="62" y1="17" y2="47" class="net_21,22,23,24"/>
  <line x1="62" x2="80" y1="47" y2="47" class="net_21,22,23,24"/>
  <line x1="302" x2="312" y1="123" y2="123" class="net_21,22,23,24"/>
  <line x1="312" x2="312" y1="123" y2="92" class="net_21,22,23,24"/>
  <line x1="312" x2="122" y1="92" y2="92" class="net_21,22,23,24"/>
  <line x1="122" x2="122" y1="92" y2="42" class="net_21,22,23,24"/>
  <circle cx="312" cy="92" r="2" style="fill:#000" class="net_21,22,23,24"/>
  <line x1="122" x2="148.66666666666666" y1="42" y2="42" class="net_21,22,23,24"/>
  <line x1="235" x2="247" y1="228" y2="228" class="net_2"/>
  <line x1="247" x2="247" y1="228" y2="143" class="net_2"/>
  <circle cx="247" cy="228" r="2" style="fill:#000" class="net_2"/>
  <line x1="247" x2="272" y1="143" y2="143" class="net_2"/>
  <line x1="235" x2="247" y1="228" y2="228" class="net_2"/>
  <line x1="247" x2="247" y1="228" y2="338" class="net_2"/>
  <line x1="247" x2="272" y1="338" y2="338" class="net_2"/>
  <line x1="230.33333333333334" x2="272" y1="123" y2="123" class="net_26,27,28,29"/>
  <line x1="230.33333333333334" x2="272" y1="318" y2="318" class="net_30,31,32,33"/>
  <line x1="102" x2="158.66666666666666" y1="293" y2="293" class="net_20"/>
  <line x1="158.66666666666666" x2="158.66666666666666" y1="293" y2="278" class="net_20"/>
  <line x1="102" x2="132" y1="39.5" y2="39.5" class="net_25"/>
  <line x1="132" x2="132" y1="39.5" y2="82" class="net_25"/>
  <line x1="132" x2="158.66666666666666" y1="82" y2="82" class="net_25"/>
  <line x1="158.66666666666666" x2="158.66666666666666" y1="82" y2="67" class="net_25"/>
  <line x1="168.66666666666666" x2="192" y1="263" y2="263" class="net_12,13,14,15"/>
  <line x1="192" x2="192" y1="263" y2="308" class="net_12,13,14,15"/>
  <circle cx="192" cy="263" r="2" style="fill:#000" class="net_12,13,14,15"/>
  <line x1="192" x2="210.33333333333334" y1="308" y2="308" class="net_12,13,14,15"/>
  <line x1="168.66666666666666" x2="272" y1="263" y2="263" class="net_12,13,14,15"/>
  <line x1="172" x2="210.33333333333334" y1="328" y2="328" class="net_34,35,36,37"/>
  <line x1="170" x2="182" y1="198" y2="198" class="net_3"/>
  <line x1="182" x2="182" y1="198" y2="348" class="net_3"/>
  <line x1="182" x2="220.33333333333334" y1="348" y2="348" class="net_3"/>
  <circle cx="182" cy="198" r="2" style="fill:#000" class="net_3"/>
  <line x1="220.33333333333334" x2="220.33333333333334" y1="348" y2="333" class="net_3"/>
  <line x1="170" x2="220.33333333333334" y1="198" y2="198" class="net_3"/>
  <line x1="220.33333333333334" x2="220.33333333333334" y1="198" y2="138" class="net_3"/>
  <line x1="168.66666666666666" x2="182" y1="52" y2="52" class="net_8,9,10,11"/>
  <line x1="182" x2="182" y1="52" y2="113" class="net_8,9,10,11"/>
  <circle cx="182" cy="52" r="2" style="fill:#000" class="net_8,9,10,11"/>
  <line x1="182" x2="210.33333333333334" y1="113" y2="113" class="net_8,9,10,11"/>
  <line x1="168.66666666666666" x2="272" y1="52" y2="52" class="net_8,9,10,11"/>
  <line x1="172" x2="210.33333333333334" y1="133" y2="133" class="net_38,39,40,41"/>
</svg>
